<svg xmlns="http://www.w3.org/2000/svg" viewBox="0 0 640 420"><title>Parcel Sort original cover art</title><rect width="640" height="420" fill="#baff72"/><circle cx="520" cy="100" r="170" fill="#153f30" opacity=".06"/><circle cx="70" cy="420" r="220" fill="white" opacity=".22"/><g><rect x="72" y="240" width="500" height="90" rx="32" fill="#153f30"/><path d="M100 286L550 286" fill="none" stroke="#baff72" stroke-width="3" stroke-linecap="round"/><rect x="130" y="167" width="95" height="94" rx="16" fill="#153f30"/><rect x="135" y="162" width="85" height="84" rx="12" fill="#ff856a"/><rect x="168" y="162" width="17" height="84" rx="0" fill="#fff0cf"/><rect x="147" y="190" width="23" height="16" rx="3" fill="#153f30"/><rect x="277" y="112" width="95" height="94" rx="16" fill="#153f30"/><rect x="282" y="107" width="85" height="84" rx="12" fill="#ffea91"/><rect x="315" y="107" width="17" height="84" rx="0" fill="#fff0cf"/><rect x="294" y="135" width="23" height="16" rx="3" fill="#153f30"/><rect x="420" y="178" width="95" height="94" rx="16" fill="#153f30"/><rect x="425" y="173" width="85" height="84" rx="12" fill="#81c6ff"/><rect x="458" y="173" width="17" height="84" rx="0" fill="#fff0cf"/><rect x="437" y="201" width="23" height="16" rx="3" fill="#153f30"/></g></svg>